/* XPM */
static char *_336319857ca491bf240eeac832b2576[] = {
/* columns rows colors chars-per-pixel */
"64 64 256 2 ",
"   c #000001",
".  c #01030B",
"X  c #030B0B",
"o  c #0A0B0B",
"O  c #040906",
"+  c #07110D",
"@  c #090D14",
"#  c #040914",
"$  c #0B1414",
"%  c #0D1914",
"&  c #091716",
"*  c #131315",
"=  c #1B1B1B",
"-  c #141A17",
";  c #131B0F",
":  c #1B2215",
">  c #1B241C",
",  c #0F201D",
"<  c #24231B",
"1  c #22291A",
"2  c #2E2B1A",
"3  c #37351D",
"4  c #30301C",
"5  c #242D22",
"6  c #272825",
"7  c #312E22",
"8  c #2B3224",
"9  c #283327",
"0  c #343424",
"q  c #393A26",
"w  c #20271D",
"e  c #433D2B",
"r  c #433B26",
"t  c #433F30",
"y  c #3D412D",
"u  c #3A4129",
"i  c #3A4332",
"p  c #43432D",
"a  c #4C452B",
"s  c #484627",
"d  c #544B2A",
"f  c #52472A",
"g  c #5F532D",
"h  c #4B4B33",
"j  c #464734",
"k  c #534B32",
"l  c #564E36",
"z  c #525133",
"x  c #5B5435",
"c  c #5A583A",
"v  c #4E5137",
"b  c #63562D",
"n  c #675B2D",
"m  c #6D5C33",
"M  c #6A5D3B",
"N  c #645A39",
"B  c #705E34",
"V  c #74652D",
"C  c #66633D",
"Z  c #6C643A",
"A  c #72643B",
"S  c #746A3C",
"D  c #7C6C3C",
"F  c #776734",
"G  c #696747",
"H  c #756C42",
"J  c #797447",
"K  c #7B7554",
"L  c #645F43",
"P  c #886E39",
"I  c #86743C",
"U  c #997C3D",
"Y  c #AA772B",
"T  c #B37C2B",
"R  c #AE7D32",
"E  c #B3721A",
"W  c #877947",
"Q  c #957C42",
"!  c #86784D",
"~  c #B5832E",
"^  c #BA852E",
"/  c #AC8538",
"(  c #B48332",
")  c #BC8C35",
"_  c #BB8D39",
"`  c #B68837",
"'  c #BE933C",
"]  c #BF9032",
"[  c #9E863F",
"{  c #C48A2B",
"}  c #C28D33",
"|  c #C39235",
" . c #CB9A36",
".. c #C2953B",
"X. c #C59A3D",
"o. c #CB9C3D",
"O. c #C99538",
"+. c #D39838",
"@. c #CDA23E",
"#. c #D2A33E",
"$. c #DAA93D",
"%. c #E2A73C",
"&. c #8E8249",
"*. c #98864A",
"=. c #868359",
"-. c #978A58",
";. c #9E905A",
":. c #A68947",
">. c #B88E41",
",. c #A9924C",
"<. c #BC9443",
"1. c #B3944D",
"2. c #B99849",
"3. c #A18F52",
"4. c #A49354",
"5. c #AC9B5D",
"6. c #A99558",
"7. c #B39A54",
"8. c #B39D5A",
"9. c #B79B53",
"0. c #BCA255",
"q. c #BCA45B",
"w. c #B7A35A",
"e. c #B9A656",
"r. c #9C9566",
"t. c #928E65",
"y. c #AC9E63",
"u. c #A69C67",
"i. c #B29E60",
"p. c #ADA36A",
"a. c #B3A465",
"s. c #B8A969",
"d. c #BBB273",
"f. c #B3AD74",
"g. c #C49C43",
"h. c #CA9E42",
"j. c #C49F4A",
"k. c #C49945",
"l. c #C29E50",
"z. c #CCA344",
"x. c #C4A24C",
"c. c #CCA54A",
"v. c #CEAA4C",
"b. c #CAA445",
"n. c #D2A545",
"m. c #D3AA45",
"M. c #DBAC43",
"N. c #D2AC4C",
"B. c #D9AD4B",
"V. c #D5A648",
"C. c #D6B14D",
"Z. c #DAB34C",
"A. c #DCB346",
"S. c #C4A453",
"D. c #CBA552",
"F. c #CEAB53",
"G. c #CCAD5A",
"H. c #C4AB5B",
"J. c #D2AD53",
"K. c #D4AF57",
"L. c #CCB15C",
"P. c #D5B254",
"I. c #D9B554",
"U. c #DCBA55",
"Y. c #D5B45B",
"T. c #DAB65A",
"R. c #D6B95D",
"E. c #DCBC5C",
"W. c #E2B34C",
"Q. c #E5BB4D",
"!. c #EDBB4D",
"~. c #E8B345",
"^. c #F2BD4B",
"/. c #E2B551",
"(. c #E3BB54",
"). c #EABC54",
"_. c #E3BD5B",
"`. c #EBBC57",
"'. c #F0BD52",
"]. c #E6AF4A",
"[. c #C3AD63",
"{. c #CBB565",
"}. c #C9B668",
"|. c #D3B563",
" X c #DBBD63",
".X c #D8BC67",
"XX c #C5B878",
"oX c #D2BD72",
"OX c #E3BE62",
"+X c #DFC15D",
"@X c #F5C44E",
"#X c #ECC354",
"$X c #E3C25D",
"%X c #EBC45C",
"&X c #E8C75A",
"*X c #F2C354",
"=X c #F4CA5B",
"-X c #F9CD5D",
";X c #F8C956",
":X c #FFD45C",
">X c #F9D35C",
",X c #E9C14D",
"<X c #DEC164",
"1X c #DDC26B",
"2X c #DDC473",
"3X c #D9C676",
"4X c #C8C078",
"5X c #E2C464",
"6X c #ECC661",
"7X c #E5C965",
"8X c #ECCB65",
"9X c #E2C56A",
"0X c #E5CA6C",
"qX c #E9CC6B",
"wX c #F3CC63",
"eX c #F6CC66",
"rX c #ECD26B",
"tX c #EED066",
"yX c #F5D265",
"uX c #FCD363",
"iX c #FFDB64",
"pX c #F3D36C",
"aX c #FEDB6C",
"sX c #FAD46B",
"dX c #E4CB73",
"fX c #E5CE7A",
"gX c #E8CD74",
"hX c #EBD374",
"jX c #EBD47B",
"kX c #ECD77A",
"lX c #F4D472",
"zX c #FDDC73",
"xX c #F5D974",
"cX c #FFE569",
"vX c #FFE375",
"bX c #FEE47C",
"nX c #FDEA7B",
"mX c #FFFC74",
"MX c #FFF66F",
"NX c #B5B184",
"BX c #CFBD85",
"VX c #DBD18A",
"CX c #EEDA82",
"ZX c #EAD887",
"AX c #F1DD82",
"SX c #ECDD93",
"DX c #E0CB90",
"FX c #FFEB84",
"GX c #F4E48C",
"HX c #F8E588",
"JX c #FFF989",
"KX c #F5E797",
"LX c #FFFB9E",
"PX c #FFF895",
"IX c #F6EEAD",
"UX c None",
/* pixels */
"UXUXUXUXUXUXUXUXUXUXUXUXUXUXUXUXUXUXUXUXUXUXUXx 9 &                         % 0 L UXUXUXUXUXUXUXUXUXUXUXUXUXUXUXUXUXUXUXUXUXUXUX",
"UXUXUXUXUXUXUXUXUXUXUXUXUXUXUXUXUXUXUXUXx 5 O     O - 9 e k C A S G z y 5 - O     O 9 C UXUXUXUXUXUXUXUXUXUXUXUXUXUXUXUXUXUXUXUX",
"UXUXUXUXUXUXUXUXUXUXUXUXUXUXUXUXUXUXc %     X 9 C &.9.x.J.uXqXK.hX0XQ.5X[.5.&.L 9       & z UXUXUXUXUXUXUXUXUXUXUXUXUXUXUXUXUXUX",
"UXUXUXUXUXUXUXUXUXUXUXUXUXUXUXUXK &     % c 3.K.-X~./.I.o._.T.-.y.U.V.B.(.M.eXJXSX*.z %     $ G UXUXUXUXUXUXUXUXUXUXUXUXUXUXUXUX",
"UXUXUXUXUXUXUXUXUXUXUXUXUXUXUX9     - G q.'.eXT.v.k.' J.n.J.%X4.;.aXdXE.OXG.|.5XzXLXPX4Xc ,     9 UXUXUXUXUXUXUXUXUXUXUXUXUXUXUX",
"UXUXUXUXUXUXUXUXUXUXUXUXUXJ #     h XXPXsXV.D.K.c.x.l.J.h.j.(.Y.{.E.rXhX9XIXjXI.dXKXGXvXzX[.v X   X J UXUXUXUXUXUXUXUXUXUXUXUXUX",
"UXUXUXUXUXUXUXUXUXUXUXUXv     % r.FXFX2X5X|.|.c.h._. XJ.k.k.Y.K.7XdXhXGXAXKXdXE.2XJ.N.Y.T.uXsXW ,     z UXUXUXUXUXUXUXUXUXUXUXUX",
"UXUXUXUXUXUXUXUXUXUXUXi     9 1XLXGX0XOXT.9XK.D.|.N.P.F.k.D.|.9XkXGXIXKXCXE.E.KXSXX.D.D.N.+XB.;XL.8     y UXUXUXUXUXUXUXUXUXUXUX",
"UXUXUXUXUXUXUXUXUXUXq     h pXLXZXjXCXkXfX_.I.gXdXG.N.Y.N.c.N.hXAXkXKXSX5X2X.XKXZXE.qXc.T.K.D.N.:XqXh     i UXUXUXUXUXUXUXUXUXUX",
"UXUXUXUXUXUXUXUXUXi     L zX:XdXfXGXjXkXCX0X6XgX XJ.h.J.Y.P.gXkXhXAXCXI.U.5XkXAXP.P.E.<XY. XrXE.Y.6XlXc     y UXUXUXUXUXUXUXUXUX",
"UXUXUXUXUXUXUXUXc     C vXpX[.kXGXAXhXgXjXGX9XOXF.N.F.E.qXfXZXgX0XGXhXR. XT.m.N.o.J. X2X0X$XP.5XF.G.%X;Xz     N UXUXUXUXUXUXUXUX",
"UXUXUXUXUXUXUXUX    p %X;XHXK r.HXhXhXjXZX0X_.G.D._. XgX0XP.N.5X<X<X<XR.Y.E.K.c.1XrX9XP.$XF.h.2X0XC.m.F.5Xs     UXUXUXUXUXUXUXUX",
"UXUXUXUXUXUXUX%   8 Y.J.3.5.NXr.HXzX9XjX2XY.5X2XOXOXgXgX5XI.E.gX+XU. XY.5X1XF.0XjXv.U.P.J..X.XY.*XI.3.K qXT.1   % UXUXUXUXUXUXUX",
"UXUXUXUXUXUXq   + H.aX0Xr.G XXPX;.3XLXgXv.|.0XgX X XkXgXT.T.qXGXAX7XU. XgX5XE.P.N.m.C.m.{.dXOXuXU *.u.7.5X%X7.$   q UXUXUXUXUXUX",
"UXUXUXUXUXUX    W vX3X X1X3XFXF   = VXLXJ.U.<X0X5X XjXE.J..XKXjX0X0Xv.G.o.$XK...v.Y.Y.X.c.M.uX! . P B.P.P.x.'.S     UXUXUXUXUXUX",
"UXUXUXUXUXw   q yXqXBX|. XsXG       = ZXvX|.1XjXgXE. XC.5XSXfXE.b.E.|.J.o.v.c.U.Y.5XhXSXqX'.M . Q ].X.n.J...@.E.q   w UXUXUXUXUX",
"UXUXUXUXA   O ,.vXfX|.1XdXdXq.x   o   a aXY.0XqX9XU.A.E.<X0X0X5Xc.N.7X9XJ. XrXkXE.U.9XZXbXW   U '.P.T.P.c...' ;X,.X   S UXUXUXUX",
"UXUXUXUX:   h sXjX<XC.9XdX XwXnX!   o   *.zX0XY.F.E.E.OX.XN.0X9XN.T.<X<XE.5XPXKX9XF.T.-X1.  A :Xn.P.m._.1XS.c.U.yXu   1 UXUXUXUX",
"UXUXUXUX  O 4.nX XF..XC. XP.h.OXzXa     0 HXT.j..XOXP.T.|.C.T.E.F.7XdX<XrXkXSX XJ.J.z.eX= * eXg.B.T.F.$X1XR.E.P.*X,.X   UXUXUXUX",
"UXUXUXu   3 xXqXOXT.Y.F.g.<.X.J._. X*   . }.W.k.jXfXK.N.J.Y.E.pX(.h.T.$XE.5XgXD.D.J.-X!   3.#XF.<XF.P.D.b.N.v.c.A.&Xu   s UXUXUX",
"UXUXUXX   I :XE.9XJ.J.D.k.X.F.J.5XnXM .   H sXJ.5XlXJ.D.U.E.OX}.0.x.~ | N.qXgXN.c.I.pX* % AXxXE.v.N.U.R.R.C.Y.c.b.aXI   X UXUXUX",
"UXUXA   : x.(.P.T.8XP.V.J.P.5X XZX6X1.@   j sXB.P. Xh.D.P.n.aXl S vX>.k.c.c.E.g.` ;X,.  N JX0Xo.X.C.R.J.v.A.#XH.S.&X{.;   D UXUX",
"UXUXk   s /.T.o.zXVXP.n.z.<X0XOX2XD.T.0   = .XZ.h.Y.L.k.yXuXzXt x sXzXlXM.J.V.` _ ;Xg   4.FX..b.<XY.R.b.P..X|.OXD.C.6Xs   s UXUX",
"UXUX:   V :XY.^.q.= -.aXP.kXv.T.0Xk./.d   o }.eX..h.|.`.{.N 6 = 6 6 q P >.8XG.R } D.=   .X7X` C.1X XC.M.iXj 9 sX#XE.!.V   : UXUX",
"UXUXO O 7.:XZ.*.*   @ W tXJ.h.gXY.>.`.D   . ,.`.k.D.-X3..   *.l D H.*   f '.N.j.].:.. * E.(.N.c.K.C.C.P.x     e 1X$X!.[ X X UXUX",
"UXUX  : D././.M   o   r /.O.J.T.>.l.'.3.  . Q M.I.sX1.#   *.mXl V mX5.  f #XB.I.=XI   0 _._. XJ.P.v.#X{.@     . 7.Q.$.2.: O UXUX",
"UXb   3 J.V.k._.A   x !.O.n.z.J.D.) lX8..   Q %XB.:XN   * K.:Xf m cXH.  2 !.o.g.-XS   r `.U.R.<XC.C.P.pX1X.   L.=Xb.X.b.3   b UX",
"UXs   d ).h._ n.bX-.h.B.^ |  X XO.2XLX9.#   P ;X0XHXl   . *.MXk m >XY.t m D.k.k.#XM   f 6XT.C.R.+XE.7X XuX:.,.>XN.v.' &Xz   s UX",
"UXq   b *Xn.O.n.lX`.{ k.K.CXfX} Y.IXpX[.# . P eXKXJXM   o * [.N I uXP.6X$Xj.h.V.yXl   k (.m.C.C.C.I.I.C.b.tXiXm.I.C.| =XZ   3 UX",
"UX4   b =XI.o.X.` ` N.c.E.kXK.o.IXfXxXXX.   *.bX9XeXq..     . * S vXuXC.c.h.I.B.%Xe   f /.m.N.z.P.I.N.P.N.b.@.C.$XC.X.M.b   3 UX",
"UX4   V *Xh...( R ..n.D...N.v.ZXIXdXlX8.. . 0.].1XgX6X5.@     . @ e :.8XQ.h.C.m.W.e   a wXN.b.m.N.P.X.b.C. .b.N.N.b.' n.b   4 UX",
"UX4   n ].o...x.Y.V.k.} z.5X.XSXGXgXpX3.  = D.T. X5X0XvX.Xx .       . q l.*Xx.n.`.a   q %Xm.m.N.v.b.h.b.m.b.m.X.h.b.X.*XS   2 UX",
"UX4   b ).n.k.I.) h.P.I.hXAXhXgX|.P.sX*.  r 9XfX2XT._.9XsXFX{.r o . .   @ S.8XN./.e   = N./.E.C.P.m.b.b.o.z.z.X.n.b.C.#Xg   3 UX",
"UXq   g `.k.} T.g.~ I.kX<XT.P.<X Xk.eX!   G bX<XgXF.wXPXfX5XMXM m *.. o   k sXN.].g   * 2.!.5XI.N.C.b.b.X.X.m.v.m.] #.=Xd   j UX",
"UXs   f _.k.} F.U./.Q.rX1XN.P.N.m...OXk   3.wX5XjX6XM j 9X$XaXh F mXI   . 0 6Xz.!.B   . Q @XA.I.m.o.C.@...A.Q.n.X...@.&Xd   s UX",
"UXd   3 V.o.j.+.c.h 2.vX<X+XqXc.<.' 9X= @ 2XpX$X5XvX6   |._.zXl B :X$X=   q qXm.!.Q .   M =XN.E.n.N.A.| ^.M N '.X.b.b.h.3   n UX",
"UXUX  2 >.o.n.J.t   < 2XlXF.P.E.G.B.,.  x PX{.F.qXFXj   |.aX6Xs G MX X*   A uXn.A.2.@   6 (.Q.z.b.m.B.m.Q .   I m.X.A.x.1   UXUX",
"UXUXX + R %.=XL   o   j =Xn.T.P.j.=Xk   2.~.g.G.gXzX0   e dXJXd Q JXN   j 8X#.F.J.%Xe     Q ^.g.h.o.A.x.#     . 7.$.;Xe.X X UXUX",
"UXUX: O P +.I.0Xr   < g.m.I.hXn.$.Y.. k uXP.F.U.T.tX6.e   @ c 7 q q . m rX%Xz.J.L.:XW . . = B.$.' b.h.X.P .   P m.@.iXI   : UXUX",
"UXUX0   s +.X.@XjXl H.!.b.+X7X7XcXj   5X(.P.R.I.I.<XaX6X2.P N < 2 H 0.~.(.v.A.T.R.%X6X* .   k ^.$.| ..~ %.B c *X] ' #Xd   s UXUX",
"UXUXb   1 v.m.z.qXnX8XDXfXm.U.PXr.  :.wXz.P.x.N.E.I.P.C./.$.:Xj m uXV.z.R.b.C.P.C.C.iXJ   o   k V.| ^ ) | A.X.' @.$.b.1   V UXUX",
"UXUXUX+ O I =XU.7XKXhXGXdX@.iX:.  P :Xv.c.m.g.@.U.Y.N.T.D.h./.N F M.h.J.C.N.R.P.c.U.ZXAXe   o   @ 1. .X...| Y ` @.,X&.  O UXUXUX",
"UXUXUX1   d zXpXGXKXAXZ.A.vXJ   W !.O.P.g.z.z.o.N.v.k.$XJ.k.k.z.c.b.n.N.C.L.U.N.N.<XZXvXrX7   O A v.X.....^ ` ] ] iXz   q UXUXUX",
"UXUXUXm   + }.nXAXGX1XN.U.rXv W -X} h.h.' g.o.b.h.) k.c.j.<...h.o.' X.b.v.U.C.@.U.hXrX$XiX0Xa D aXQ.o.` ) ' ..~ $.H.+   UXUXUXUX",
"UXUXUXUX:   b nXAXI.m.E.rXrX#X(.b.h.v.F.<XI.T.b.c.} ' ' g.X.X.h.h.c.x.v.b.P.R.N.U.$X+XhX+XyXaXyX$XZ.h.) ) | | X.nXc   : UXUXUXUX",
"UXUXUXUXC   O 4XnXz.X.c.c.b.~ | I.C.c.qXP.m.m.z.m...| k.' ....@.U.v.P.U.U.v.N.+XN.<XGXhX&X&XrXrXU.b.X.X.^ N.U.iXe.+   H UXUXUXUX",
"UXUXUXUXUX%   s >XB.m.@...~ ^ ).qX#.A.I. .J.v.h.' g.g.X.' ] h.R.E.N.U.R.v.b.X.<XhXCXpX>XtX&X&X,XA.m.@.$.#.#XQ.#Xu   : UXUXUXUXUX",
"UXUXUXUXUXV   O *.-X! 7.v.2.|.e.6.v.3.6.N.5.,.O.` ..X.....@.v.x.X.N.U.P.x.v.U.+XGXxXe.;.e.R.L.e.9.e.5.5.{.q.Q.I X   F UXUXUXUXUX",
"UXUXUXUXUXUX9   : L.u.=.t.u.=.K =.=.K -.t.=.Q } | h.n...' C.' ` X.+XU.C.P.U.U.0XjX&Xy.=.p.t.7.a.r.a.r.r.p.s.w.1   8 UXUXUXUXUXUX",
"UXUXUXUXUXUXUX+   i D.M.x.( / >.h./ ( 1.[ :.R R ) h.v.' _ ] _ b.+X+Xv.R.R.P.v.U.C.1XSXxXnX<X .C.P.+XF.A.,X#Xu   + UXUXUXUXUXUXUX",
"UXUXUXUXUXUXUXC     n ^.{  .z.n._.7X_.} Y ^ T Y T _ g.k.) ' I.%X7Xv.c.E.R.v.g.b.@.0X0X&XrXtXm.' Z.$X+X$.*Xc     J UXUXUXUXUXUXUX",
"UXUXUXUXUXUXUXUXp   O H ;XtX+Xh.B.8X9X..R >.~ } o.#.} ^ ' O.U.I.I.c.E.$XN.N.E.m.] X.@.Q.A.+X@.@.&XC.A.;XH     v UXUXUXUXUXUXUXUX",
"UXUXUXUXUXUXUXUXUXw   . -.JX6X_ o.n.Y Y P.n.` j.F.x.D.l...j.J.x.v.R.9XR.F.$XY.G.x.b.v.m.#XI.@.#.+X@.@XJ .   5 UXUXUXUXUXUXUXUXUX",
"UXUXUXUXUXUXUXUXUXUX5   O G A. .~ ^ T | #.E <.[.8.u.XXu.w.a.q.5.p.d.p.5.p.q.4.6.y.m.{ { Q.Q.m.C.M.C.G X   5 UXUXUXUXUXUXUXUXUXUX",
"UXUXUXUXUXUXUXUXUXUXUX>     j x.+.x.a.H.:.:.l.8.7.9.7.6.8.q.a.5.d.}.q.e.8.i.,.,.,.1.[ e.{.G.L.=Xb.v     5 UXUXUXUXUXUXUXUXUXUXUX",
"UXUXUXUXUXUXUXUXUXUXUXUXi     5 ,.zXBXf.XXf.4.8.8.[.d.a.8.a.p.a.p.}.[.8.7.y.7.w.s.p.s.p.5.q.oXy.9     u UXUXUXUXUXUXUXUXUXUXUXUX",
"UXUXUXUXUXUXUXUXUXUXUXUXUXv X   & S E.iX@X' ~ | C.@.@.@.m.m.@. .#.Q.W.v.O.o.X.n.Z.P.+X{ %.I.C +   X G UXUXUXUXUXUXUXUXUXUXUXUXUX",
"UXUXUXUXUXUXUXUXUXUXUXUXUXUXUX,     > &.D.+.~.n.m.b.^ N.P./ 2./ ..:.p.eXY ..@.I.U.-XsX:.F 6   O , UXUXUXUXUXUXUXUXUXUXUXUXUXUXUX",
"UXUXUXUXUXUXUXUXUXUXUXUXUXUXUXUXj X     5 S e.$X,X$. .@XL.! W t.4.I K h.C.M.~.aXJ.1.S 9 .   X c UXUXUXUXUXUXUXUXUXUXUXUXUXUXUXUX",
"UXUXUXUXUXUXUXUXUXUXUXUXUXUXUXUXUXUXi X     % j S Q x.$X1X0X#XU.C.N.R V.rX2.i.=.p -     + 7 UXUXUXUXUXUXUXUXUXUXUXUXUXUXUXUXUXUX",
"UXUXUXUXUXUXUXUXUXUXUXUXUXUXUXUXUXUXUXUXj -       % 9 y C &.W I D D Z L j w +       , q UXUXUXUXUXUXUXUXUXUXUXUXUXUXUXUXUXUXUXUX",
"UXUXUXUXUXUXUXUXUXUXUXUXUXUXUXUXUXUXUXUXUXUXS y , X                         X > p J UXUXUXUXUXUXUXUXUXUXUXUXUXUXUXUXUXUXUXUXUXUX",
"UXUXUXUXUXUXUXUXUXUXUXUXUXUXUXUXUXUXUXUXUXUXUXUXUXUXM z p 8 5 1 5 8 i y a Z UXUXUXUXUXUXUXUXUXUXUXUXUXUXUXUXUXUXUXUXUXUXUXUXUXUX",
"UXUXUXUXUXUXUXUXUXUXUXUXUXUXUXUXUXUXUXUXUXUXUXUXUXUXUXUXUXUXUXUXUXUXUXUXUXUXUXUXUXUXUXUXUXUXUXUXUXUXUXUXUXUXUXUXUXUXUXUXUXUXUXUX"
};
