/* XPM */
static char *_5d5c7b0c5b548faf678344c573e0b0a[] = {
/* columns rows colors chars-per-pixel */
"32 32 256 2 ",
"   c #000002",
".  c #010A06",
"X  c #01030C",
"o  c #030B0C",
"O  c #0A0C0D",
"+  c #0B140E",
"@  c #10150E",
"#  c #11190F",
"$  c #1A1C0E",
"%  c #000611",
"&  c #020A12",
"*  c #0C0E12",
"=  c #061312",
"-  c #0A1413",
";  c #0E1A19",
":  c #121613",
">  c #141A14",
",  c #1A1C14",
"<  c #151C19",
"1  c #251F11",
"2  c #162012",
"3  c #1D2114",
"4  c #16211C",
"5  c #1B251C",
"6  c #232415",
"7  c #2D2615",
"8  c #23261B",
"9  c #252C1D",
"0  c #2B2C1C",
"q  c #352A17",
"w  c #36351F",
"e  c #3C321F",
"r  c #3C381C",
"t  c #112020",
"y  c #282721",
"u  c #2F2D24",
"i  c #312E23",
"p  c #243227",
"a  c #2E3320",
"s  c #3B3422",
"d  c #303826",
"f  c #3F3821",
"g  c #353327",
"h  c #4A3D1D",
"j  c #403720",
"k  c #453D23",
"l  c #443A28",
"z  c #4B3F25",
"x  c #403F30",
"c  c #3F4127",
"v  c #654B1E",
"b  c #4A4322",
"n  c #49432C",
"m  c #564620",
"M  c #534A23",
"N  c #5A4C21",
"B  c #51472C",
"V  c #524D28",
"C  c #594D2A",
"Z  c #5D522B",
"A  c #5A5228",
"S  c #4A4633",
"D  c #4D4836",
"F  c #534D31",
"G  c #5D5332",
"H  c #63582D",
"J  c #6D5B2D",
"K  c #665323",
"L  c #725C2D",
"P  c #615631",
"I  c #635B34",
"U  c #655D3A",
"Y  c #725F33",
"T  c #78672F",
"R  c #6C623C",
"E  c #776731",
"W  c #7C6431",
"Q  c #776834",
"!  c #7C6B34",
"~  c #71633B",
"^  c #7B6A38",
"/  c #79703B",
"(  c #6B6A43",
")  c #746B40",
"_  c #836B33",
"`  c #886D37",
"'  c #816B38",
"]  c #8B753D",
"[  c #88783A",
"{  c #91793E",
"}  c #9C7E3C",
"|  c #927132",
" . c #B27D2B",
".. c #AA7E35",
"X. c #887644",
"o. c #887E4D",
"O. c #8D7E45",
"+. c #827850",
"@. c #9F833E",
"#. c #BF8B2E",
"$. c #AB8539",
"%. c #A6893B",
"&. c #AC8134",
"*. c #BE8D32",
"=. c #B48C3C",
"-. c #BD943D",
";. c #C48A2C",
":. c #C49235",
">. c #CA9637",
",. c #C3953B",
"<. c #CB9C3C",
"1. c #D39D36",
"2. c #D19D3B",
"3. c #D6A63E",
"4. c #8C8048",
"5. c #9C854B",
"6. c #9A884D",
"7. c #94874C",
"8. c #928850",
"9. c #9C8B54",
"0. c #9F9557",
"q. c #A08746",
"w. c #A88E4B",
"e. c #A28A4A",
"r. c #AE924A",
"t. c #B39445",
"y. c #BE9542",
"u. c #BF9843",
"i. c #B2944D",
"p. c #B7984A",
"a. c #BB9C4B",
"s. c #B59A43",
"d. c #A28E51",
"f. c #AC9553",
"g. c #AF9857",
"h. c #A49259",
"j. c #A89A5B",
"k. c #BA9D51",
"l. c #BEA152",
"z. c #BCA35A",
"x. c #9F9564",
"c. c #B3A264",
"v. c #BDAA62",
"b. c #B4A668",
"n. c #BAAA68",
"m. c #C19742",
"M. c #C59C43",
"N. c #CA9F45",
"B. c #C19D4C",
"V. c #CCA343",
"C. c #C4A24C",
"Z. c #CCA549",
"A. c #CDAA4C",
"S. c #D2A242",
"D. c #D4AA45",
"F. c #DAAB45",
"G. c #D0A64B",
"H. c #D3AB4B",
"J. c #DAAD4A",
"K. c #DFB147",
"L. c #D4B24F",
"P. c #DCB34D",
"I. c #C3A555",
"U. c #CCAD54",
"Y. c #C3A95C",
"T. c #C9AA5C",
"R. c #D3AE52",
"E. c #D0AD58",
"W. c #CEB25C",
"Q. c #D5B354",
"!. c #DBB553",
"~. c #DDB955",
"^. c #D6B45A",
"/. c #DAB65A",
"(. c #DBBA5C",
"). c #E0AB45",
"_. c #E0B046",
"`. c #EEB743",
"'. c #E3B44D",
"]. c #E8B649",
"[. c #E4B94A",
"{. c #E8BA4D",
"}. c #E1B754",
"|. c #E3BB54",
" X c #EBBD54",
".X c #E2BD5A",
"XX c #C3AD63",
"oX c #CDB465",
"OX c #C1B36C",
"+X c #CEB96A",
"@X c #D2B763",
"#X c #D4BB64",
"$X c #DBBD62",
"%X c #CBBD78",
"&X c #E0BF62",
"*X c #DFC25E",
"=X c #F6C34F",
"-X c #FBC54C",
";X c #ECC355",
":X c #E5C15C",
">X c #EAC25B",
",X c #F2C354",
"<X c #FCCC56",
"1X c #F6C55E",
"2X c #F3CA5B",
"3X c #FBCC5B",
"4X c #FFD75E",
"5X c #FFDA5C",
"6X c #DEC064",
"7X c #DEC369",
"8X c #DFC572",
"9X c #E5C464",
"0X c #ECC563",
"qX c #EDCA62",
"wX c #E3C56A",
"eX c #EAC768",
"rX c #E5CA6C",
"tX c #EDCD6C",
"yX c #F5CE64",
"uX c #EDD26E",
"iX c #F1D264",
"pX c #FCD463",
"aX c #FFDA62",
"sX c #F4D26C",
"dX c #FBD568",
"fX c #FCDA6C",
"gX c #E3C770",
"hX c #E4CA72",
"jX c #E5CE79",
"kX c #EBD275",
"lX c #E9D37C",
"zX c #F3D071",
"xX c #F5D976",
"cX c #FEDD73",
"vX c #F2D77B",
"bX c #F5D87D",
"nX c #FADD7C",
"mX c #FDE375",
"MX c #FEE47C",
"NX c #FFF17E",
"BX c #FFF97F",
"VX c #EBD681",
"CX c #EDDA84",
"ZX c #F3DE81",
"AX c #FDE383",
"SX c #FFEE82",
"DX c #F6E68D",
"FX c #FFE789",
"GX c #F6E88E",
"HX c #FFF484",
"JX c #FFF489",
"KX c #F4E896",
"LX c #FFEC98",
"PX c #FFF494",
"IX c #FFF894",
"UX c None",
/* pixels */
"UXUXUXUXUXUXUXUXUXUXUXUXUXUXUXUXUXUXUXUXUXUXUXUXUXUXUXUXUXUXUXUX",
"UXUXUXUXUXUXUXUXUXUXUX5 ; 4 9 a a 8 ; - > UXUXUXUXUXUXUXUXUXUXUX",
"UXUXUXUXUXUXUXUXU o # P @.M. XoX@X:XI.f.( 4 X G UXUXUXUXUXUXUXUX",
"UXUXUXUXUXUXUXO O 8.eX1X'.H.J.T.@XsXvXcXJXnXO.= - UXUXUXUXUXUXUX",
"UXUXUXUXUXUX  F DXJXwXE.^.U.m..XbXKXVXCX8XL.pX:Xb   UXUXUXUXUXUX",
"UXUXUXUXUX  ! JXPXlXkXeXE.G.(.hXGXlX/.gX6X(.^.>XfXQ   UXUXUXUXUX",
"UXUXUXUX  J zX%XJXvXkX$X^.wXwX$XhX6XQ.Q./.*X#XwXyX0XI   UXUXUXUX",
"UXUXUX. b mXn.x.h.FX&X&XgXhX(.kXrXQ.$XQ./.Z.;XW.X.l.dXr o UXUXUX",
"UXUXA . uXbXnXP   +.cXrXwX!.hXkX/.Q.H.(.(.vX(.l ` '.P.H.. I UXUX",
"UXUX. 4.MX#XwX/.s   Y.sX^./.$X(.!.rXhXCX(.yXD L <X/.E.3X[ . UXUX",
"UXUX+ tX0XH.-.;XwX  n yX&X^.Q..X^.G.rX7X X' x dXR.Q.(.}.~.+ UXUX",
"UX3 N pXzX}.R.wXmXz % (./.}.aX7.X.{. XM.'.g o.dXA.Q.;X(.pXZ $ UX",
"UX+ t.}.s ~ 0XwX0X_ X p.{.^.~ n I G t.'...8 k.P.~.!.B S iX%.+ UX",
"UX# P.B.  s ).G.!.i.X } pXu s k.I.y h 4X{ < ^.9X|.0X- O :XV.; UX",
"UX3 H.'.I.y./.R.eX%XX w.FX& 7 q././.} ,X^ , L.~.(.qXU.U.{.A.0 K ",
"UX7 [.M.S.2.E.hXLXXXO r.SX6.    P 0X<X XJ < P.D.H.Z.P.[.H.D.7 N ",
"UX6 H.N.N.D.~.VXAXq.> T.qXHX+Xf   X q.4XL * R.}.A.M.V.S.V.J.9 H ",
"UX8 N.F.J.sXkXQ.{.Y g MX$Xd.NXY.] 1 % 3X| X a.2XH.3.J.'.3.D.3 / ",
"UX# S.N.7 ) sXA. Xs R mX7X% l.z.qXP % 3Xy.  ! <XD.J.k j K.A.@ UX",
"UX+ &.R.X q ;XiXp.u U..XtXG B ~ U F p.|.qX6 O P.`.V.* - [.s.+ UX",
"UX, N <X7X8X0XiXS { 1XA..XyXm.C G '.;XU.pXg.  7 $.1.=.=.-XN 3 UX",
"UXUX2 sXIXAX9XR W ].M.V.Z.R.!.m.m.D.L.L.(.SXR   ] D.>.;.P.# UXUX",
"UXUX. j.HXD.L.t.K.H.L.H.,.-.y.2.H.Z.L.H.(.mXsX6X;X:.#.=X{ & UXUX",
"UXUXh + >XC.u.G.U.E.Q.C.,.,.,.V.L.~.Z.^.kX6X*XiXZ.s.Q.iXo Z UXUX",
"UXUXUX= b @Xi.d.e.5.9...:.N.,.M.L./.A.*XkXOXv.k.z.v.tXk = UXUXUX",
"UXUXUXUX  W <XD./.B... .:.>.*.P.|.~.~.3.H.uX:XV.~.5X_   UXUXUXUX",
"UXUXUXUXUX  8.3X2.,.#.m.I.k.B.T.XXW.W.l.-.1.[.[.<X/   UXUXUXUXUX",
"UXUXUXUXUXUXX m H.wXk.f.b.b.c.c.OXv.j.h.g.k.9X9XA   UXUXUXUXUXUX",
"UXUXUXUXUXUXUXX 4 0.(.'.P.D.C.t.l.U.<.P.fX@X' ; = UXUXUXUXUXUXUX",
"UXUXUXUXUXUXUXUXb = 3 Q $.J.#XI.i.C.L.a.^ 5 % m UXUXUXUXUXUXUXUX",
"UXUXUXUXUXUXUXUXUXUXM 4 ; 5 d c w 0 p = # h UXUXUXUXUXUXUXUXUXUX",
"UXUXUXUXUXUXUXUXUXUXUXUXUXT K b V A v UXUXUXUXUXUXUXUXUXUXUXUXUX"
};
