/* XPM */
static char *b574d430d93e4395d7e7f9631411405e[] = {
/* columns rows colors chars-per-pixel */
"16 16 188 2 ",
"   c #1D1A14",
".  c #262217",
"X  c #2A261C",
"o  c #3E3920",
"O  c #3C3827",
"+  c #413C1E",
"@  c #4D4925",
"#  c #424028",
"$  c #4A4729",
"%  c #49492D",
"&  c #544F27",
"*  c #514D28",
"=  c #534F2B",
"-  c #5C4E2C",
";  c #53502B",
":  c #53512E",
">  c #5F512A",
",  c #5B552A",
"<  c #4B4F31",
"1  c #515032",
"2  c #5E5230",
"3  c #5C5D35",
"4  c #5B5B38",
"5  c #624F26",
"6  c #625225",
"7  c #635429",
"8  c #675A2D",
"9  c #6A5A28",
"0  c #6D5929",
"q  c #6D5B2F",
"w  c #705A2D",
"e  c #705B2E",
"r  c #675D30",
"t  c #6B5F30",
"y  c #685E32",
"u  c #6E5D30",
"i  c #725F32",
"p  c #6B602F",
"a  c #71612B",
"s  c #7F642C",
"d  c #6E6030",
"f  c #6A6237",
"g  c #6E6335",
"h  c #6C613A",
"j  c #6D6438",
"k  c #736631",
"l  c #7D6633",
"z  c #776934",
"x  c #766835",
"c  c #796837",
"v  c #72643A",
"b  c #756739",
"n  c #796538",
"m  c #7F6B3B",
"M  c #7E6F3F",
"N  c #7D703A",
"B  c #7C703E",
"V  c #7C743E",
"C  c #836C35",
"Z  c #856F35",
"A  c #8F7531",
"S  c #88723E",
"D  c #93763A",
"F  c #967A3C",
"G  c #937C3F",
"H  c #947F3D",
"J  c #A1792F",
"K  c #857441",
"L  c #837344",
"P  c #8A7641",
"I  c #8E7740",
"U  c #837C4A",
"Y  c #917E45",
"T  c #907F48",
"R  c #9C803D",
"E  c #A08039",
"W  c #AB8239",
"Q  c #AF8A3C",
"!  c #AC8B3F",
"~  c #B08637",
"^  c #BF8D34",
"/  c #B58B3A",
"(  c #B48F3A",
")  c #B48D3C",
"_  c #C4953A",
"`  c #D69E3A",
"'  c #9E8445",
"]  c #968449",
"[  c #99844C",
"{  c #A48B44",
"}  c #A68E46",
"|  c #A68C49",
" . c #AC9045",
".. c #B69642",
"X. c #B19147",
"o. c #B39544",
"O. c #B29447",
"+. c #B99945",
"@. c #B4984D",
"#. c #B69D4E",
"$. c #BD9B49",
"%. c #A39251",
"&. c #AA9551",
"*. c #B29B53",
"=. c #B39954",
"-. c #B9A051",
";. c #B4A35E",
":. c #B4A465",
">. c #CCA242",
",. c #C3A14A",
"<. c #C6A449",
"1. c #C1A14E",
"2. c #C7A34E",
"3. c #CDA349",
"4. c #CBA74C",
"5. c #D4A342",
"6. c #D0A445",
"7. c #D9AC44",
"8. c #D0AA4E",
"9. c #D7AF4F",
"0. c #D9B049",
"q. c #DDB14E",
"w. c #C2A451",
"e. c #C5A455",
"r. c #C8A652",
"t. c #C7A957",
"y. c #C3A95A",
"u. c #C5AA5A",
"i. c #C5AC58",
"p. c #DEAE50",
"a. c #D0AE58",
"s. c #D5B050",
"d. c #D7B150",
"f. c #D5B453",
"g. c #DDB050",
"h. c #DAB550",
"j. c #D9B756",
"k. c #DCB955",
"l. c #DAB858",
"z. c #DBB958",
"x. c #DBBA58",
"c. c #DFB859",
"v. c #DFBB5B",
"b. c #E0B047",
"n. c #E1B64C",
"m. c #E3B84C",
"M. c #E5BA55",
"N. c #E3BF5B",
"B. c #E8BD58",
"V. c #C0AC60",
"C. c #C8B46E",
"Z. c #D0B562",
"A. c #D1B965",
"S. c #D1BD65",
"D. c #D8BC60",
"F. c #DBBD62",
"G. c #DFBF63",
"H. c #E5BF60",
"J. c #E8C35F",
"K. c #EAC65D",
"L. c #EBC65F",
"P. c #EFC95F",
"I. c #F0C65A",
"U. c #F6CC58",
"Y. c #E7C363",
"T. c #E3C667",
"R. c #E1C468",
"E. c #E1CB69",
"W. c #EBCA68",
"Q. c #ECCB69",
"!. c #F8CF62",
"~. c #F8CF64",
"^. c #FCD267",
"/. c #FFD465",
"(. c #FFDE68",
"). c #E0CE7C",
"_. c #E9D073",
"`. c #F2D373",
"'. c #F3DE77",
"]. c #F6DC77",
"[. c #F8D975",
"{. c #FCDC74",
"}. c #FFDF74",
"|. c #F5E57D",
" X c #FBE081",
".X c #F9E586",
"XX c #F6E789",
"oX c None",
/* pixels */
"oXoXoXoXoXoXg f y j oXoXoXoXoXoX",
"oXoXoXoX1 c E O.V.;.U $ oXoXoXoX",
"oXoXoX4 XX}.g.v..X X}.z.* oXoXoX",
"oXoX: C.).[.F._.R.8.N.Y.a.+ oXoX",
"oX* `.=.X Z.Q.W.J.R.G.S r.d.@ oX",
"oXN ^./.2 - (.w.@.~.G Y I.!.c oX",
"x Z n B.' i X.v K ) l #.j.M H 9 ",
"d Q / H.:.P %.  G 9.q +.k.<...6 ",
"8 ~ d.}.[ L '.] . F q ..m.7.( q ",
"0 s C P.C y.*.T h  .q 5 b.q A k ",
"oXV |.-.R n.s.D ! U.i.O J ` a oX",
"oX4 E.$.1.4._ 5.0.f.].S.,.6.; oX",
"oXoXo v.r.W ^ >.j.j.D.L.L.< oXoX",
"oXoXoX, 3.p.e.u.S.t.M.h.& oXoXoX",
"oXoXoXoX% B { &.| } b # oXoXoXoX",
"oXoXoXoXoXoXy r 7 7 oXoXoXoXoXoX"
};
